<svg xmlns="http://www.w3.org/2000/svg" viewBox="0 0 512 512" role="img" aria-label="웨딩홀픽 앱 아이콘">
  <defs>
    <radialGradient id="bgGlow" cx="24%" cy="16%" r="86%">
      <stop offset="0%" stop-color="#327b60"/>
      <stop offset="56%" stop-color="#174d3b"/>
      <stop offset="100%" stop-color="#0a2e22"/>
    </radialGradient>
    <linearGradient id="goldMain" x1="0%" x2="100%" y1="0%" y2="100%">
      <stop offset="0%" stop-color="#fff7ce"/>
      <stop offset="28%" stop-color="#f7de93"/>
      <stop offset="68%" stop-color="#d8a640"/>
      <stop offset="100%" stop-color="#fff0b3"/>
    </linearGradient>
    <linearGradient id="goldEdge" x1="0%" x2="100%" y1="0%" y2="0%">
      <stop offset="0%" stop-color="#8e6424"/>
      <stop offset="100%" stop-color="#f6dda0"/>
    </linearGradient>
    <filter id="softShadow" x="-30%" y="-30%" width="170%" height="190%">
      <feDropShadow dx="0" dy="16" stdDeviation="18" flood-color="#071b15" flood-opacity="0.5"/>
    </filter>
    <filter id="goldGlow" x="-60%" y="-60%" width="220%" height="220%">
      <feDropShadow dx="0" dy="0" stdDeviation="5" flood-color="#ffe59c" flood-opacity="0.9"/>
    </filter>
  </defs>
  <rect width="512" height="512" rx="124" fill="url(#bgGlow)" />
  <path d="M132 416c54-118 132-178 256-202" fill="none" stroke="rgba(255,255,255,0.04)" stroke-width="26" stroke-linecap="round"/>
  <g filter="url(#softShadow)">
    <path d="M128 170h46l46 172 42-114 44 114 46-172h44L332 372h-42l-29-84-31 84h-42L128 170z" fill="url(#goldMain)" stroke="url(#goldEdge)" stroke-width="6" stroke-linejoin="round"/>
    <path d="M102 314c56-84 152-124 310-128 54 0 90 18 126 46" fill="none" stroke="url(#goldMain)" stroke-width="14" stroke-linecap="round"/>
    <path d="M98 318c42 70 138 86 264 82 96-4 138-33 182-94" fill="none" stroke="url(#goldMain)" stroke-width="14" stroke-linecap="round"/>
    <path d="M344 210l54-122" fill="none" stroke="url(#goldMain)" stroke-width="18" stroke-linecap="round"/>
    <path d="M380 74c26 0 44 18 46 44-22 2-39-3-54-20-9-10-10-18 8-24z" fill="url(#goldMain)"/>
    <path d="M418 70c24 0 40 16 42 40-20 2-36-3-49-17-8-8-9-15 7-23z" fill="url(#goldMain)"/>
    <path d="M404 118c27 0 45 15 49 37-23 5-43 0-59-15-7-7-6-13 10-22z" fill="url(#goldMain)"/>
  </g>
  <g filter="url(#goldGlow)">
    <path d="M418 64l11 22 24 3-17 16 4 24-22-11-22 11 4-24-17-16 24-3 11-22z" fill="#fff9d8"/>
    <path d="M132 264l7 14 16 2-12 10 3 15-14-8-14 8 3-15-12-10 16-2 7-14z" fill="#fff7cf"/>
    <path d="M286 424l9 17 19 3-14 13 3 19-17-9-17 9 4-19-14-13 19-3 8-17z" fill="#fff7cf"/>
    <path d="M378 408l6 12 13 2-10 9 2 13-11-6-11 6 2-13-10-9 13-2 6-12z" fill="#fff5c7"/>
  </g>
</svg>
