<svg xmlns="http://www.w3.org/2000/svg" viewBox="0 0 512 512" role="img" aria-label="웨딩홀픽 앱 아이콘">
  <defs>
    <linearGradient id="bg" x1="8%" x2="92%" y1="6%" y2="94%">
      <stop offset="0%" stop-color="#1f6b51" />
      <stop offset="100%" stop-color="#0b3b2c" />
    </linearGradient>
    <linearGradient id="gold" x1="0%" x2="100%" y1="0%" y2="100%">
      <stop offset="0%" stop-color="#f5de9d" />
      <stop offset="100%" stop-color="#c69542" />
    </linearGradient>
  </defs>
  <rect width="512" height="512" rx="124" fill="url(#bg)" />
  <circle cx="250" cy="364" r="118" fill="rgba(255, 225, 162, 0.06)" />
  <path d="M124 110h44l84 216 72-216h42L274 402h-37L124 110z" fill="url(#gold)"/>
  <ellipse cx="232" cy="286" rx="178" ry="94" fill="none" stroke="url(#gold)" stroke-width="18" transform="rotate(-11 232 286)"/>
  <path d="M324 116c32 0 58 23 58 62 0 30-16 52-42 68" fill="none" stroke="url(#gold)" stroke-width="18" stroke-linecap="round"/>
  <path d="M388 62l13 20 24 8-18 16 2 25-21-12-22 12 4-25-18-16 24-8 12-20z" fill="url(#gold)"/>
  <path d="M382 84c11-9 27-10 38-2-1 11-9 22-19 27-8-8-15-15-19-25z" fill="rgba(248, 229, 171, 0.88)"/>
</svg>
