<svg xmlns="http://www.w3.org/2000/svg" viewBox="0 0 512 512" role="img" aria-label="웨딩홀 비교기 마스커블 아이콘">
  <defs>
    <linearGradient id="bg" x1="8%" x2="92%" y1="8%" y2="92%">
      <stop offset="0%" stop-color="#a45542" />
      <stop offset="100%" stop-color="#6f2d21" />
    </linearGradient>
    <linearGradient id="panel" x1="0%" x2="100%" y1="0%" y2="100%">
      <stop offset="0%" stop-color="#fcf6ef" />
      <stop offset="100%" stop-color="#ead7c3" />
    </linearGradient>
    <linearGradient id="gold" x1="0%" x2="100%" y1="0%" y2="100%">
      <stop offset="0%" stop-color="#d8b77b" />
      <stop offset="100%" stop-color="#bd9650" />
    </linearGradient>
  </defs>
  <rect width="512" height="512" rx="156" fill="url(#bg)" />
  <rect x="94" y="94" width="324" height="324" rx="102" fill="url(#panel)" />
  <path d="M256 152l10 19 19 10-19 10-10 19-10-19-19-10 19-10 10-19z" fill="url(#gold)" />
  <path d="M184 292v-58c0-40 32-72 72-72s72 32 72 72v58" fill="none" stroke="#6f2d21" stroke-linecap="round" stroke-width="28"/>
  <path d="M204 322h104" fill="none" stroke="#6f2d21" stroke-linecap="round" stroke-width="28"/>
  <path d="M182 368h148" fill="none" stroke="url(#gold)" stroke-linecap="round" stroke-width="18"/>
  <circle cx="256" cy="394" r="22" fill="url(#gold)"/>
</svg>
