<svg xmlns="http://www.w3.org/2000/svg" viewBox="0 0 512 512" role="img" aria-label="웨딩홀픽 마스커블 아이콘">
  <defs>
    <radialGradient id="bgGlow" cx="24%" cy="16%" r="86%">
      <stop offset="0%" stop-color="#327b60"/>
      <stop offset="56%" stop-color="#174d3b"/>
      <stop offset="100%" stop-color="#0a2e22"/>
    </radialGradient>
    <linearGradient id="goldMain" x1="0%" x2="100%" y1="0%" y2="100%">
      <stop offset="0%" stop-color="#fff7ce"/>
      <stop offset="28%" stop-color="#f7de93"/>
      <stop offset="68%" stop-color="#d8a640"/>
      <stop offset="100%" stop-color="#fff0b3"/>
    </linearGradient>
    <linearGradient id="goldEdge" x1="0%" x2="100%" y1="0%" y2="0%">
      <stop offset="0%" stop-color="#8e6424"/>
      <stop offset="100%" stop-color="#f6dda0"/>
    </linearGradient>
    <filter id="softShadow" x="-30%" y="-30%" width="170%" height="190%">
      <feDropShadow dx="0" dy="16" stdDeviation="18" flood-color="#071b15" flood-opacity="0.5"/>
    </filter>
    <filter id="goldGlow" x="-60%" y="-60%" width="220%" height="220%">
      <feDropShadow dx="0" dy="0" stdDeviation="5" flood-color="#ffe59c" flood-opacity="0.9"/>
    </filter>
  </defs>
  <rect width="512" height="512" rx="156" fill="url(#bgGlow)" />
  <path d="M130 418c50-112 126-170 246-194" fill="none" stroke="rgba(255,255,255,0.04)" stroke-width="24" stroke-linecap="round"/>
  <g filter="url(#softShadow)">
    <path d="M126 174h42l44 166 40-108 42 108 44-166h40L316 370h-40l-24-72-26 72h-40L126 174z" fill="url(#goldMain)" stroke="url(#goldEdge)" stroke-width="6" stroke-linejoin="round"/>
    <path d="M110 312c50-76 142-114 286-118 50 0 84 16 118 42" fill="none" stroke="url(#goldMain)" stroke-width="14" stroke-linecap="round"/>
    <path d="M108 316c40 64 128 78 242 75 90-4 130-31 170-86" fill="none" stroke="url(#goldMain)" stroke-width="14" stroke-linecap="round"/>
    <path d="M336 210l50-112" fill="none" stroke="url(#goldMain)" stroke-width="18" stroke-linecap="round"/>
    <path d="M370 88c24 0 40 16 42 40-20 2-36-3-49-17-8-8-9-15 7-23z" fill="url(#goldMain)"/>
    <path d="M404 84c22 0 37 14 39 36-18 2-33-3-45-15-7-8-8-13 6-21z" fill="url(#goldMain)"/>
    <path d="M392 126c25 0 41 14 45 34-20 4-39 0-54-14-6-6-5-12 9-20z" fill="url(#goldMain)"/>
  </g>
  <g filter="url(#goldGlow)">
    <path d="M404 80l10 20 22 3-16 14 4 22-20-10-20 10 4-22-16-14 22-3 10-20z" fill="#fff9d8"/>
    <path d="M126 270l6 12 14 2-10 9 2 13-12-6-12 6 2-13-10-9 14-2 6-12z" fill="#fff7cf"/>
    <path d="M276 408l8 15 17 2-12 12 3 17-16-8-15 8 3-17-13-12 17-2 8-15z" fill="#fff7cf"/>
  </g>
</svg>
