<svg xmlns="http://www.w3.org/2000/svg" viewBox="0 0 128 128" role="img" aria-label="웨딩홀픽 아이콘">
  <defs>
    <linearGradient id="bg" x1="10%" x2="90%" y1="6%" y2="94%">
      <stop offset="0%" stop-color="#1d664e" />
      <stop offset="100%" stop-color="#0b3c2c" />
    </linearGradient>
    <linearGradient id="gold" x1="0%" x2="100%" y1="0%" y2="100%">
      <stop offset="0%" stop-color="#f5de9d" />
      <stop offset="100%" stop-color="#c69542" />
    </linearGradient>
  </defs>
  <rect width="128" height="128" rx="32" fill="url(#bg)" />
  <circle cx="64" cy="94" r="24" fill="rgba(255,228,170,0.09)" />
  <path d="M34 32h10l20 52 18-52h10L69 95h-9L34 32z" fill="url(#gold)"/>
  <ellipse cx="60" cy="74" rx="38" ry="20" fill="none" stroke="url(#gold)" stroke-width="5" transform="rotate(-10 60 74)"/>
  <path d="M82 34c7 0 14 5 14 14 0 8-5 13-10 16" fill="none" stroke="url(#gold)" stroke-width="5" stroke-linecap="round"/>
  <path d="M92 22l4 6 7 2-5 5 1 8-7-4-7 4 1-8-5-5 7-2 4-6z" fill="url(#gold)"/>
</svg>
